<mxfile host="app.diagrams.net" modified="2023-08-30T15:59:47.409Z" agent="Mozilla/5.0 (Windows NT 10.0; Win64; x64) AppleWebKit/537.36 (KHTML, like Gecko) Chrome/116.0.0.0 Safari/537.36 Edg/116.0.1938.54" etag="lCKOb2NZx96ZQTm0w9u3" version="21.7.0" type="device">
  <diagram name="Page-1" id="1JXN8MOCiwwIkrobCRVp">
    <mxGraphModel dx="1426" dy="833" grid="1" gridSize="10" guides="1" tooltips="1" connect="1" arrows="1" fold="1" page="1" pageScale="1" pageWidth="850" pageHeight="1100" math="0" shadow="0">
      <root>
        <mxCell id="0" />
        <mxCell id="1" parent="0" />
        <mxCell id="ps3t_hEIROcrxmllVnVl-6" style="edgeStyle=orthogonalEdgeStyle;rounded=0;orthogonalLoop=1;jettySize=auto;html=1;exitX=0.5;exitY=1;exitDx=0;exitDy=0;entryX=0.5;entryY=0;entryDx=0;entryDy=0;" edge="1" parent="1" source="ps3t_hEIROcrxmllVnVl-1" target="ps3t_hEIROcrxmllVnVl-2">
          <mxGeometry relative="1" as="geometry" />
        </mxCell>
        <mxCell id="ps3t_hEIROcrxmllVnVl-8" style="edgeStyle=orthogonalEdgeStyle;rounded=0;orthogonalLoop=1;jettySize=auto;html=1;exitX=0.5;exitY=1;exitDx=0;exitDy=0;entryX=0.5;entryY=0;entryDx=0;entryDy=0;" edge="1" parent="1" source="ps3t_hEIROcrxmllVnVl-1" target="ps3t_hEIROcrxmllVnVl-3">
          <mxGeometry relative="1" as="geometry" />
        </mxCell>
        <mxCell id="ps3t_hEIROcrxmllVnVl-1" value="Feature 1" style="rounded=0;whiteSpace=wrap;html=1;fillColor=#dae8fc;strokeColor=#6c8ebf;" vertex="1" parent="1">
          <mxGeometry x="240" y="80" width="80" height="40" as="geometry" />
        </mxCell>
        <mxCell id="ps3t_hEIROcrxmllVnVl-7" style="edgeStyle=orthogonalEdgeStyle;rounded=0;orthogonalLoop=1;jettySize=auto;html=1;exitX=0.5;exitY=1;exitDx=0;exitDy=0;entryX=0.5;entryY=0;entryDx=0;entryDy=0;" edge="1" parent="1" source="ps3t_hEIROcrxmllVnVl-2" target="ps3t_hEIROcrxmllVnVl-4">
          <mxGeometry relative="1" as="geometry" />
        </mxCell>
        <mxCell id="ps3t_hEIROcrxmllVnVl-10" style="edgeStyle=orthogonalEdgeStyle;rounded=0;orthogonalLoop=1;jettySize=auto;html=1;exitX=0.5;exitY=1;exitDx=0;exitDy=0;entryX=0.5;entryY=0;entryDx=0;entryDy=0;" edge="1" parent="1" source="ps3t_hEIROcrxmllVnVl-2" target="ps3t_hEIROcrxmllVnVl-9">
          <mxGeometry relative="1" as="geometry" />
        </mxCell>
        <mxCell id="ps3t_hEIROcrxmllVnVl-2" value="Feature 2" style="rounded=0;whiteSpace=wrap;html=1;fillColor=#d5e8d4;strokeColor=#82b366;" vertex="1" parent="1">
          <mxGeometry x="120" y="160" width="80" height="40" as="geometry" />
        </mxCell>
        <mxCell id="ps3t_hEIROcrxmllVnVl-13" style="edgeStyle=orthogonalEdgeStyle;rounded=0;orthogonalLoop=1;jettySize=auto;html=1;exitX=0.5;exitY=1;exitDx=0;exitDy=0;entryX=0.5;entryY=0;entryDx=0;entryDy=0;" edge="1" parent="1" source="ps3t_hEIROcrxmllVnVl-3" target="ps3t_hEIROcrxmllVnVl-11">
          <mxGeometry relative="1" as="geometry" />
        </mxCell>
        <mxCell id="ps3t_hEIROcrxmllVnVl-14" style="edgeStyle=orthogonalEdgeStyle;rounded=0;orthogonalLoop=1;jettySize=auto;html=1;exitX=0.5;exitY=1;exitDx=0;exitDy=0;entryX=0.5;entryY=0;entryDx=0;entryDy=0;" edge="1" parent="1" source="ps3t_hEIROcrxmllVnVl-3" target="ps3t_hEIROcrxmllVnVl-12">
          <mxGeometry relative="1" as="geometry" />
        </mxCell>
        <mxCell id="ps3t_hEIROcrxmllVnVl-3" value="Feature 3" style="rounded=0;whiteSpace=wrap;html=1;fillColor=#f8cecc;strokeColor=#b85450;" vertex="1" parent="1">
          <mxGeometry x="360" y="160" width="80" height="40" as="geometry" />
        </mxCell>
        <mxCell id="ps3t_hEIROcrxmllVnVl-17" style="edgeStyle=orthogonalEdgeStyle;rounded=0;orthogonalLoop=1;jettySize=auto;html=1;exitX=0.5;exitY=1;exitDx=0;exitDy=0;entryX=0.5;entryY=0;entryDx=0;entryDy=0;" edge="1" parent="1" source="ps3t_hEIROcrxmllVnVl-4" target="ps3t_hEIROcrxmllVnVl-15">
          <mxGeometry relative="1" as="geometry" />
        </mxCell>
        <mxCell id="ps3t_hEIROcrxmllVnVl-18" style="edgeStyle=orthogonalEdgeStyle;rounded=0;orthogonalLoop=1;jettySize=auto;html=1;exitX=0.5;exitY=1;exitDx=0;exitDy=0;entryX=0.5;entryY=0;entryDx=0;entryDy=0;" edge="1" parent="1" source="ps3t_hEIROcrxmllVnVl-4" target="ps3t_hEIROcrxmllVnVl-16">
          <mxGeometry relative="1" as="geometry" />
        </mxCell>
        <mxCell id="ps3t_hEIROcrxmllVnVl-4" value="Feature 4" style="rounded=0;whiteSpace=wrap;html=1;fillColor=#e1d5e7;strokeColor=#9673a6;" vertex="1" parent="1">
          <mxGeometry x="200" y="240" width="80" height="40" as="geometry" />
        </mxCell>
        <mxCell id="ps3t_hEIROcrxmllVnVl-9" value="PRED" style="rounded=0;whiteSpace=wrap;html=1;" vertex="1" parent="1">
          <mxGeometry x="60" y="240" width="40" height="40" as="geometry" />
        </mxCell>
        <mxCell id="ps3t_hEIROcrxmllVnVl-11" value="PRED" style="rounded=0;whiteSpace=wrap;html=1;" vertex="1" parent="1">
          <mxGeometry x="300" y="240" width="40" height="40" as="geometry" />
        </mxCell>
        <mxCell id="ps3t_hEIROcrxmllVnVl-12" value="PRED" style="rounded=0;whiteSpace=wrap;html=1;" vertex="1" parent="1">
          <mxGeometry x="460" y="240" width="40" height="40" as="geometry" />
        </mxCell>
        <mxCell id="ps3t_hEIROcrxmllVnVl-15" value="PRED" style="rounded=0;whiteSpace=wrap;html=1;" vertex="1" parent="1">
          <mxGeometry x="180" y="320" width="40" height="40" as="geometry" />
        </mxCell>
        <mxCell id="ps3t_hEIROcrxmllVnVl-16" value="PRED" style="rounded=0;whiteSpace=wrap;html=1;" vertex="1" parent="1">
          <mxGeometry x="260" y="320" width="40" height="40" as="geometry" />
        </mxCell>
        <mxCell id="ps3t_hEIROcrxmllVnVl-36" style="edgeStyle=orthogonalEdgeStyle;rounded=0;orthogonalLoop=1;jettySize=auto;html=1;exitX=0.5;exitY=1;exitDx=0;exitDy=0;entryX=0.5;entryY=0;entryDx=0;entryDy=0;" edge="1" parent="1" source="ps3t_hEIROcrxmllVnVl-38" target="ps3t_hEIROcrxmllVnVl-41">
          <mxGeometry relative="1" as="geometry" />
        </mxCell>
        <mxCell id="ps3t_hEIROcrxmllVnVl-37" style="edgeStyle=orthogonalEdgeStyle;rounded=0;orthogonalLoop=1;jettySize=auto;html=1;exitX=0.5;exitY=1;exitDx=0;exitDy=0;entryX=0.5;entryY=0;entryDx=0;entryDy=0;" edge="1" parent="1" source="ps3t_hEIROcrxmllVnVl-38" target="ps3t_hEIROcrxmllVnVl-44">
          <mxGeometry relative="1" as="geometry" />
        </mxCell>
        <mxCell id="ps3t_hEIROcrxmllVnVl-38" value="Feature 2" style="rounded=0;whiteSpace=wrap;html=1;fillColor=#d5e8d4;strokeColor=#82b366;" vertex="1" parent="1">
          <mxGeometry x="122.5" y="400" width="80" height="40" as="geometry" />
        </mxCell>
        <mxCell id="ps3t_hEIROcrxmllVnVl-40" style="edgeStyle=orthogonalEdgeStyle;rounded=0;orthogonalLoop=1;jettySize=auto;html=1;exitX=0.5;exitY=1;exitDx=0;exitDy=0;entryX=0.5;entryY=0;entryDx=0;entryDy=0;" edge="1" parent="1" source="ps3t_hEIROcrxmllVnVl-41" target="ps3t_hEIROcrxmllVnVl-48">
          <mxGeometry relative="1" as="geometry" />
        </mxCell>
        <mxCell id="ps3t_hEIROcrxmllVnVl-54" style="edgeStyle=orthogonalEdgeStyle;rounded=0;orthogonalLoop=1;jettySize=auto;html=1;exitX=0.5;exitY=1;exitDx=0;exitDy=0;entryX=0.5;entryY=0;entryDx=0;entryDy=0;" edge="1" parent="1" source="ps3t_hEIROcrxmllVnVl-41" target="ps3t_hEIROcrxmllVnVl-53">
          <mxGeometry relative="1" as="geometry" />
        </mxCell>
        <mxCell id="ps3t_hEIROcrxmllVnVl-41" value="Feature 3" style="rounded=0;whiteSpace=wrap;html=1;fillColor=#f8cecc;strokeColor=#b85450;" vertex="1" parent="1">
          <mxGeometry x="62.5" y="480" width="80" height="40" as="geometry" />
        </mxCell>
        <mxCell id="ps3t_hEIROcrxmllVnVl-42" style="edgeStyle=orthogonalEdgeStyle;rounded=0;orthogonalLoop=1;jettySize=auto;html=1;exitX=0.5;exitY=1;exitDx=0;exitDy=0;entryX=0.5;entryY=0;entryDx=0;entryDy=0;" edge="1" parent="1" source="ps3t_hEIROcrxmllVnVl-44" target="ps3t_hEIROcrxmllVnVl-49">
          <mxGeometry relative="1" as="geometry" />
        </mxCell>
        <mxCell id="ps3t_hEIROcrxmllVnVl-43" style="edgeStyle=orthogonalEdgeStyle;rounded=0;orthogonalLoop=1;jettySize=auto;html=1;exitX=0.5;exitY=1;exitDx=0;exitDy=0;entryX=0.5;entryY=0;entryDx=0;entryDy=0;" edge="1" parent="1" source="ps3t_hEIROcrxmllVnVl-44" target="ps3t_hEIROcrxmllVnVl-50">
          <mxGeometry relative="1" as="geometry" />
        </mxCell>
        <mxCell id="ps3t_hEIROcrxmllVnVl-44" value="Feature 1" style="rounded=0;whiteSpace=wrap;html=1;fillColor=#dae8fc;strokeColor=#6c8ebf;" vertex="1" parent="1">
          <mxGeometry x="182.5" y="480" width="80" height="40" as="geometry" />
        </mxCell>
        <mxCell id="ps3t_hEIROcrxmllVnVl-48" value="PRED" style="rounded=0;whiteSpace=wrap;html=1;" vertex="1" parent="1">
          <mxGeometry x="52.5" y="560" width="40" height="40" as="geometry" />
        </mxCell>
        <mxCell id="ps3t_hEIROcrxmllVnVl-49" value="PRED" style="rounded=0;whiteSpace=wrap;html=1;" vertex="1" parent="1">
          <mxGeometry x="172.5" y="560" width="40" height="40" as="geometry" />
        </mxCell>
        <mxCell id="ps3t_hEIROcrxmllVnVl-50" value="PRED" style="rounded=0;whiteSpace=wrap;html=1;" vertex="1" parent="1">
          <mxGeometry x="232.5" y="560" width="40" height="40" as="geometry" />
        </mxCell>
        <mxCell id="ps3t_hEIROcrxmllVnVl-53" value="PRED" style="rounded=0;whiteSpace=wrap;html=1;" vertex="1" parent="1">
          <mxGeometry x="112.5" y="560" width="40" height="40" as="geometry" />
        </mxCell>
        <mxCell id="ps3t_hEIROcrxmllVnVl-55" style="edgeStyle=orthogonalEdgeStyle;rounded=0;orthogonalLoop=1;jettySize=auto;html=1;exitX=0.5;exitY=1;exitDx=0;exitDy=0;entryX=0.5;entryY=0;entryDx=0;entryDy=0;" edge="1" parent="1" source="ps3t_hEIROcrxmllVnVl-57" target="ps3t_hEIROcrxmllVnVl-60">
          <mxGeometry relative="1" as="geometry" />
        </mxCell>
        <mxCell id="ps3t_hEIROcrxmllVnVl-56" style="edgeStyle=orthogonalEdgeStyle;rounded=0;orthogonalLoop=1;jettySize=auto;html=1;exitX=0.5;exitY=1;exitDx=0;exitDy=0;entryX=0.5;entryY=0;entryDx=0;entryDy=0;" edge="1" parent="1" source="ps3t_hEIROcrxmllVnVl-57">
          <mxGeometry relative="1" as="geometry">
            <mxPoint x="487.5" y="480" as="targetPoint" />
          </mxGeometry>
        </mxCell>
        <mxCell id="ps3t_hEIROcrxmllVnVl-57" value="Feature 4" style="rounded=0;whiteSpace=wrap;html=1;fillColor=#e1d5e7;strokeColor=#9673a6;" vertex="1" parent="1">
          <mxGeometry x="387.5" y="400" width="80" height="40" as="geometry" />
        </mxCell>
        <mxCell id="ps3t_hEIROcrxmllVnVl-58" style="edgeStyle=orthogonalEdgeStyle;rounded=0;orthogonalLoop=1;jettySize=auto;html=1;exitX=0.5;exitY=1;exitDx=0;exitDy=0;entryX=0.5;entryY=0;entryDx=0;entryDy=0;" edge="1" parent="1" source="ps3t_hEIROcrxmllVnVl-60" target="ps3t_hEIROcrxmllVnVl-64">
          <mxGeometry relative="1" as="geometry" />
        </mxCell>
        <mxCell id="ps3t_hEIROcrxmllVnVl-59" style="edgeStyle=orthogonalEdgeStyle;rounded=0;orthogonalLoop=1;jettySize=auto;html=1;exitX=0.5;exitY=1;exitDx=0;exitDy=0;entryX=0.5;entryY=0;entryDx=0;entryDy=0;" edge="1" parent="1" source="ps3t_hEIROcrxmllVnVl-60" target="ps3t_hEIROcrxmllVnVl-67">
          <mxGeometry relative="1" as="geometry" />
        </mxCell>
        <mxCell id="ps3t_hEIROcrxmllVnVl-60" value="Feature 2" style="rounded=0;whiteSpace=wrap;html=1;fillColor=#d5e8d4;strokeColor=#82b366;" vertex="1" parent="1">
          <mxGeometry x="327.5" y="480" width="80" height="40" as="geometry" />
        </mxCell>
        <mxCell id="ps3t_hEIROcrxmllVnVl-64" value="PRED" style="rounded=0;whiteSpace=wrap;html=1;" vertex="1" parent="1">
          <mxGeometry x="317.5" y="560" width="40" height="40" as="geometry" />
        </mxCell>
        <mxCell id="ps3t_hEIROcrxmllVnVl-67" value="PRED" style="rounded=0;whiteSpace=wrap;html=1;" vertex="1" parent="1">
          <mxGeometry x="377.5" y="560" width="40" height="40" as="geometry" />
        </mxCell>
        <mxCell id="ps3t_hEIROcrxmllVnVl-68" value="PRED" style="rounded=0;whiteSpace=wrap;html=1;" vertex="1" parent="1">
          <mxGeometry x="467.5" y="480" width="40" height="40" as="geometry" />
        </mxCell>
      </root>
    </mxGraphModel>
  </diagram>
</mxfile>
